<svg width="20" height="20" viewBox="0 0 20 20" fill="none" xmlns="http://www.w3.org/2000/svg">
<g clip-path="url(#clip0_468_3143)">
<path d="M9.69 0.0822984C9.78442 0.0283669 9.89127 0 10 0C10.1087 0 10.2156 0.0283669 10.31 0.0822984L14.9975 2.76105C15.0932 2.81569 15.1727 2.89465 15.228 2.98992C15.2833 3.08518 15.3125 3.19338 15.3125 3.30355V8.2973L19.685 10.7973C19.7803 10.8517 19.8596 10.9303 19.9149 11.0251C19.9702 11.1199 19.9995 11.2276 20 11.3373V16.6948C20 16.805 19.9708 16.9132 19.9155 17.0084C19.8602 17.1037 19.7807 17.1827 19.685 17.2373L14.9975 19.916C14.9031 19.97 14.7962 19.9983 14.6875 19.9983C14.5788 19.9983 14.4719 19.97 14.3775 19.916L10 17.416L5.6225 19.9173C5.52808 19.9712 5.42123 19.9996 5.3125 19.9996C5.20377 19.9996 5.09692 19.9712 5.0025 19.9173L0.315 17.2385C0.219341 17.1839 0.139825 17.1049 0.0845069 17.0097C0.0291891 16.9144 3.55338e-05 16.8062 0 16.696L0 11.3385C3.55338e-05 11.2284 0.0291891 11.1202 0.0845069 11.0249C0.139825 10.9296 0.219341 10.8507 0.315 10.796L4.6875 8.2973V3.30355C4.68754 3.19338 4.71669 3.08518 4.77201 2.98992C4.82732 2.89465 4.90684 2.81569 5.0025 2.76105L9.69 0.0822984ZM5.3125 9.3798L1.885 11.3385L5.3125 13.2973L8.74 11.3385L5.3125 9.3798ZM9.375 12.416L5.9375 14.3798V18.2973L9.375 16.3335V12.416ZM10.625 16.3335L14.0625 18.2973V14.3798L10.625 12.416V16.3335ZM11.26 11.3385L14.6875 13.2973L18.115 11.3385L14.6875 9.3798L11.26 11.3385ZM14.0625 8.2973V4.3798L10.625 6.3448V10.2623L14.0625 8.2973ZM9.375 10.2623V6.3448L5.9375 4.3798V8.2973L9.375 10.2623ZM6.5725 3.30355L10 5.2623L13.4275 3.30355L10 1.3448L6.5725 3.30355ZM18.75 12.416L15.3125 14.3798V18.2973L18.75 16.3335V12.416ZM4.6875 18.2973V14.3798L1.25 12.416V16.3335L4.6875 18.2973Z" fill="#5D7074"/>
</g>
<defs>
<clipPath id="clip0_468_3143">
<rect width="20" height="20" fill="white"/>
</clipPath>
</defs>
</svg>
