<svg width="20" height="20" viewBox="0 0 20 20" fill="none" xmlns="http://www.w3.org/2000/svg">
<g clip-path="url(#clip0_468_3127)">
<path d="M9.99843 1.11091C9.2002 1.11312 8.40595 1.22338 7.63731 1.43869L8.06509 2.47202C9.72657 2.0321 11.4867 2.15205 13.0732 2.81331C14.6596 3.47456 15.9839 4.64026 16.841 6.13C17.6982 7.61974 18.0405 9.35046 17.8149 11.0543C17.5893 12.7582 16.8084 14.3402 15.593 15.5555C14.3777 16.7708 12.7957 17.5517 11.0918 17.7773C9.38797 18.0029 7.65725 17.6607 6.16752 16.8035C4.67778 15.9464 3.51208 14.6221 2.85082 13.0356C2.18957 11.4492 2.06962 9.68906 2.50954 8.02758L1.4762 7.59424C0.971932 9.38813 1.04417 11.2951 1.68271 13.0457C2.32125 14.7963 3.4938 16.302 5.03464 17.3499C6.57548 18.3978 8.40668 18.935 10.2694 18.8855C12.1322 18.836 13.9323 18.2024 15.4153 17.0741C16.8984 15.9459 17.9893 14.3801 18.534 12.5981C19.0788 10.8161 19.0497 8.90797 18.4509 7.14338C17.8521 5.3788 16.7139 3.84701 15.1972 2.76452C13.6804 1.68203 11.8618 1.10357 9.99843 1.11091Z" fill="#5D7074"/>
<path d="M4.13886 8.7221C3.86158 9.98909 4.00191 11.3118 4.53886 12.4924C5.07582 13.673 5.98055 14.648 7.11773 15.2717C8.25491 15.8954 9.56344 16.1341 10.8476 15.9523C12.1318 15.7704 13.3225 15.1777 14.2419 14.2629C15.1612 13.348 15.7596 12.1601 15.9477 10.8768C16.1357 9.59354 15.9033 8.28387 15.2851 7.14369C14.6669 6.00351 13.6963 5.09408 12.5183 4.55143C11.3403 4.00877 10.0183 3.86205 8.74997 4.13321L9.09442 4.99988C10.1735 4.79785 11.2889 4.94709 12.2769 5.42568C13.265 5.90427 14.0735 6.68701 14.5839 7.65898C15.0943 8.63095 15.2797 9.74095 15.1127 10.826C14.9458 11.9111 14.4354 12.9141 13.6565 13.6877C12.8776 14.4613 11.8712 14.9649 10.785 15.1244C9.69882 15.2839 8.59011 15.091 7.62164 14.574C6.65317 14.057 5.87595 13.2431 5.4041 12.2519C4.93224 11.2606 4.7906 10.1442 4.99997 9.06655L4.13886 8.7221Z" fill="#5D7074"/>
<path d="M9.99887 12.2724C9.44199 12.2641 8.90763 12.0512 8.49776 11.6741C8.08789 11.297 7.83119 10.7822 7.77665 10.2279L6.87109 9.85015V10.0002C6.87113 10.6268 7.0574 11.2392 7.40624 11.7598C7.75508 12.2803 8.25076 12.6854 8.83033 12.9237C9.40989 13.1619 10.0472 13.2226 10.6613 13.0979C11.2754 12.9732 11.8385 12.6688 12.2793 12.2233C12.72 11.7779 13.0184 11.2115 13.1366 10.5962C13.2548 9.98079 13.1874 9.34418 12.943 8.76717C12.6986 8.19017 12.2883 7.69881 11.7641 7.35551C11.2399 7.0122 10.6255 6.83244 9.99887 6.83904H9.86554L10.2378 7.77793C10.793 7.86214 11.2971 8.14997 11.6518 8.5854C12.0065 9.02082 12.1865 9.57267 12.1567 10.1335C12.1269 10.6943 11.8894 11.224 11.4905 11.6194C11.0917 12.0147 10.5599 12.2475 9.99887 12.2724Z" fill="#5D7074"/>
<path d="M4.5573 7.41091C4.60858 7.46325 4.67847 7.4932 4.75174 7.49424H6.77952L9.76285 10.4776C9.86747 10.5829 10.0096 10.6424 10.1581 10.6429C10.3066 10.6434 10.4492 10.585 10.5545 10.4804C10.6599 10.3757 10.7193 10.2336 10.7199 10.0851C10.7204 9.93663 10.6619 9.79404 10.5573 9.68869L7.51841 6.66647V4.72758C7.51736 4.65431 7.48741 4.58442 7.43507 4.53313L4.32952 1.42758C4.29069 1.38951 4.24155 1.36367 4.18818 1.35327C4.13481 1.34287 4.07956 1.34836 4.02928 1.36907C3.979 1.38977 3.93591 1.42477 3.90534 1.46974C3.87476 1.5147 3.85806 1.56765 3.8573 1.62202V3.84424H1.66841C1.61404 3.84501 1.56109 3.86171 1.51613 3.89228C1.47116 3.92285 1.43616 3.96595 1.41545 4.01623C1.39475 4.06651 1.38926 4.12176 1.39966 4.17513C1.41006 4.2285 1.4359 4.27764 1.47396 4.31647L4.5573 7.41091Z" fill="#5D7074"/>
</g>
<defs>
<clipPath id="clip0_468_3127">
<rect width="20" height="20" fill="white"/>
</clipPath>
</defs>
</svg>
