<svg width="92" height="155" viewBox="0 0 92 155" fill="none" xmlns="http://www.w3.org/2000/svg">
<path d="M81.3267 44.1963C81.3267 44.1963 91.0059 54.2694 91.4631 58.0608C91.9205 61.8524 86.8267 67.7708 86.8267 67.7708L81.3267 44.1963Z" fill="#E46700"/>
<path d="M76.9492 148.593C76.9492 148.593 76.6076 153.936 75.5774 154.01C75.4404 154.02 70.3533 154.009 70.3533 154.009L63.8594 153.957C63.8594 153.957 63.9052 152.387 65.8043 152.059C67.7033 151.731 70.8833 150.399 72.0387 147.883C73.254 145.236 76.9492 148.593 76.9492 148.593Z" fill="#2358A5"/>
<path d="M91.418 148.625C91.418 148.625 91.0764 153.968 90.0461 154.042C89.9091 154.052 84.822 154.041 84.822 154.041L78.3282 153.989C78.3282 153.989 78.374 152.418 80.2731 152.09C82.1721 151.763 85.3521 150.43 86.5075 147.915C87.7229 145.268 91.418 148.625 91.418 148.625Z" fill="#2358A5"/>
<path d="M69.8832 91.1449C69.8832 91.1449 71.5581 102.052 77.852 121.421C84.146 140.79 84.9914 149.174 84.9914 149.174L91.7886 148.997C91.7886 148.997 91.8924 127.844 88.9935 118.105C86.0947 108.365 88.4392 83.0146 88.4392 83.0146L69.8832 91.1449Z" fill="#163560"/>
<path d="M66.5929 83.5645C66.5929 83.5645 66.3168 99.9945 69.1053 120.175C71.8937 140.355 70.9153 148.917 70.9153 148.917L77.6981 149.158C77.6981 149.158 81.7955 128.985 80.6552 118.885C79.5148 108.785 86.2812 84.2477 86.2812 84.2477L66.5929 83.5645Z" fill="#1C468A"/>
<path d="M79.8086 45.1426L76.1893 47.5132L70.9682 46.5246C71.0414 46.1018 71.39 44.3482 71.7075 42.7602C71.7266 42.6665 71.7459 42.5727 71.7639 42.4814C72.0357 41.1299 72.2706 39.9692 72.2706 39.9692L77.1536 37.8192L78.9742 37.0176C78.9694 37.0459 78.83 38.5176 78.8106 38.7324C78.461 42.5474 79.8086 45.1426 79.8086 45.1426Z" fill="#FFB27D"/>
<path d="M72.3073 43.9262C72.4087 43.8836 78.6012 42.064 79.2729 42.2882C79.9447 42.5125 80.3398 43.819 80.3398 43.819L70.2127 46.094C70.2127 46.094 71.0129 44.4698 72.3073 43.9262Z" fill="#2194F3"/>
<path d="M88.8877 85.6409C87.8283 90.4421 70.3694 90.9736 65.8787 86.6039C65.3679 86.1057 65.3477 83.7934 65.5475 80.6763C65.9383 74.5863 67.1706 65.4263 67.2281 60.7454C67.2561 58.4849 67.5704 56.1734 67.9872 54.0748C68.8739 49.602 70.2189 46.0936 70.2189 46.0936C70.2189 46.0936 78.7518 43.3451 80.3462 43.8191C88.0281 46.1027 89.9469 80.8402 88.8877 85.6409Z" fill="#EF6C00"/>
<path d="M65.547 80.6766C65.9379 74.5866 67.1702 65.4267 67.2277 60.7457C67.2556 58.4853 67.57 56.1738 67.9868 54.0752L73.118 53.1777C73.118 53.1777 78.0886 73.7495 65.547 80.6766Z" fill="#D96200"/>
<path d="M68.3413 72.1921C68.3413 72.1921 68.689 73.0319 67.9536 73.5935C67.2181 74.1552 66.74 75.0665 66.9066 75.7339C67.0734 76.401 68.6816 77.4924 69.2404 77.3183C69.7992 77.144 70.9373 76.2681 70.8157 75.9162C70.6941 75.5642 71.5867 72.8312 70.2278 71.7752C68.8691 70.7193 68.3413 72.1921 68.3413 72.1921Z" fill="#FFB27D"/>
<path d="M74.1408 44.8696C74.1408 44.8696 69.1363 45.7983 65.1375 51.6861C61.1387 57.5735 58.5069 61.9516 59.2366 64.0782C59.9662 66.2049 66.6434 73.5897 67.7973 73.5923C68.9512 73.5949 70.8149 72.7564 70.9241 70.8615C70.9241 70.8615 66.5153 63.4946 67.4459 62.4349C67.8436 61.9821 73.2864 57.6001 74.0987 59.7077C75.4424 63.1947 74.1408 44.8696 74.1408 44.8696Z" fill="#EF6C00"/>
<path d="M78.4417 38.7991C77.3666 40.6184 73.3711 42.1848 71.7051 42.7603C71.7242 42.6666 71.7434 42.5728 71.7614 42.4815C72.0333 41.1299 72.2681 39.9693 72.2681 39.9693L77.1512 37.8193C78.2293 37.8068 78.8852 38.0505 78.4417 38.7991Z" fill="#FCA56B"/>
<path d="M70.4285 39.6675C70.4285 39.6675 78.2814 42.1451 79.7433 37.2127C81.2052 32.2803 83.2034 29.278 78.2513 27.4877C73.2993 25.6973 71.7629 27.2871 70.876 28.8143C69.989 30.3414 68.4233 38.896 70.4285 39.6675Z" fill="#FFB27D"/>
<path d="M71.1889 28.3393C71.1889 28.3393 71.6776 34.0839 72.8614 33.8372C74.0453 33.5905 75.1189 33.408 74.9419 35.1388C74.7649 36.8699 73.1197 38.8655 76.7658 39.1799C80.412 39.4939 85.6752 30.065 84.6771 28.2755C81.7976 23.1118 67.0243 22.0387 71.1889 28.3393Z" fill="#163560"/>
<path d="M0.602364 19.5615C3.53211 9.09872 8.48453 0 21.8902 0C33.6471 0 44.3106 9.51708 43.5356 21.2452C42.8232 32.0289 32.6323 41.1631 20.1573 39.8792C8.47348 38.6767 -2.75214 31.5414 0.602364 19.5615Z" fill="#2196F3" fill-opacity="0.3"/>
<g opacity="0.8">
<path d="M18.6779 26.5559C18.6779 25.7004 18.7335 24.956 18.8452 24.3235C18.9562 23.6906 19.1401 23.1122 19.3958 22.5879C19.6515 22.0638 19.9829 21.5666 20.3893 21.0967C20.7956 20.6265 21.2943 20.1266 21.8846 19.5964C22.3302 19.1985 22.7467 18.822 23.1335 18.4664C23.5202 18.1111 23.8614 17.7464 24.1565 17.3727C24.4516 16.9991 24.6844 16.6015 24.8548 16.1797C25.0254 15.7578 25.1105 15.288 25.1105 14.7697C25.1105 13.637 24.8056 12.7722 24.196 12.1758C23.586 11.579 22.6908 11.2809 21.5105 11.2809C21.0383 11.2809 20.5792 11.3415 20.1335 11.4615C19.6874 11.5822 19.2874 11.7751 18.9334 12.0401C18.5794 12.3054 18.2942 12.6429 18.0777 13.0525C17.8611 13.4624 17.7532 13.9563 17.7532 14.5348H12.9727C12.9855 13.402 13.2117 12.4048 13.6511 11.5429C14.0904 10.6814 14.6938 9.95835 15.4612 9.37372C16.2282 8.78924 17.1267 8.3495 18.1562 8.05408C19.1855 7.75911 20.3035 7.61133 21.5104 7.61133C22.8349 7.61133 24.015 7.7679 25.0514 8.08121C26.0873 8.39468 26.966 8.85259 27.6874 9.45496C28.4084 10.0578 28.9562 10.7926 29.33 11.6604C29.704 12.5282 29.8905 13.5106 29.8905 14.6071C29.8905 15.4024 29.7529 16.1435 29.4775 16.8306C29.2022 17.5173 28.8348 18.1623 28.3759 18.7645C27.9165 19.3674 27.3921 19.9459 26.8019 20.5001C26.2117 21.0547 25.6019 21.6028 24.9726 22.145C24.2509 22.7478 23.7691 23.4076 23.5264 24.1245C23.2838 24.8416 23.1556 25.6519 23.1429 26.5558L18.6779 26.5559ZM18.3434 32.1781C18.3434 31.8406 18.4025 31.5272 18.5204 31.238C18.6383 30.9486 18.8122 30.6956 19.0418 30.4787C19.2711 30.2618 19.5533 30.0931 19.8877 29.9726C20.2224 29.8523 20.6059 29.7919 21.0386 29.7919C21.4714 29.7919 21.8551 29.8523 22.1896 29.9726C22.524 30.0931 22.8057 30.2618 23.0354 30.4787C23.2646 30.6956 23.4418 30.9486 23.5667 31.238C23.691 31.5272 23.7536 31.8408 23.7536 32.1781C23.7536 32.8409 23.5175 33.3954 23.0452 33.841C22.5731 34.2869 21.9043 34.5099 21.0386 34.5099C20.1731 34.5099 19.5073 34.2869 19.042 33.841C18.5761 33.3954 18.3434 32.8409 18.3434 32.1781Z" fill="white"/>
</g>
</svg>
