<svg width="20" height="20" viewBox="0 0 20 20" fill="none" xmlns="http://www.w3.org/2000/svg">
<path d="M9.37484 1.875V3.8475C8.30047 4.12625 7.49984 5.0925 7.49984 6.25C7.49984 6.90438 7.76609 7.5 8.18359 7.94938L6.09359 12.5H3.74984V13.75H5.50797L3.73047 17.6175L4.86297 18.1444L6.89422 13.75H9.37484V15H10.6248V13.75H13.1055L15.1167 18.1444L16.2498 17.6375L14.4723 13.75H16.2498V12.5H13.9061L11.8161 7.92938C12.2286 7.48563 12.4998 6.90188 12.4998 6.25C12.4998 5.0925 11.6992 4.12625 10.6248 3.8475V1.875H9.37484ZM9.99984 5C10.698 5 11.2498 5.55188 11.2498 6.25C11.2498 6.61375 11.1036 6.93875 10.8592 7.16813L10.8398 7.1875L10.2148 7.46125L12.5186 12.5H10.6248V11.25H9.37484V12.5H7.46047L9.76547 7.5L9.14047 7.20687L9.15984 7.1875C9.02848 7.06961 8.92391 6.92493 8.85318 6.76321C8.78246 6.60149 8.74722 6.42649 8.74984 6.25C8.74984 5.55188 9.30172 5 9.99984 5Z" fill="#5D7074"/>
</svg>
