<svg width="20" height="20" viewBox="0 0 20 20" fill="none" xmlns="http://www.w3.org/2000/svg">
<path d="M10 2.5C6.80438 2.5 4.13563 4.475 3.04688 7.26562L4.19937 7.73438C5.11 5.40062 7.31875 3.75 10 3.75C12.0262 3.75 13.8331 4.74375 14.9613 6.25H12.5V7.5H16.875V3.125H15.625V5.05875C14.9246 4.25519 14.0601 3.61103 13.0899 3.16966C12.1196 2.72828 11.066 2.49994 10 2.5ZM15.8006 12.2656C14.89 14.5994 12.6812 16.25 10 16.25C7.95188 16.25 6.1525 15.2419 5.01938 13.75H7.5V12.5H3.125V16.875H4.375V14.9412C5.7425 16.4913 7.74687 17.5 10 17.5C13.1956 17.5 15.8644 15.525 16.9531 12.7344L15.8006 12.2656Z" fill="#5D7074"/>
</svg>
