<svg width="20" height="20" viewBox="0 0 20 20" fill="none" xmlns="http://www.w3.org/2000/svg">
<path d="M10 18.3332C9.54167 18.3332 9.14945 18.1701 8.82333 17.844C8.49722 17.5179 8.33389 17.1254 8.33333 16.6665H11.6667C11.6667 17.1248 11.5036 17.5173 11.1775 17.844C10.8514 18.1707 10.4589 18.3337 10 18.3332ZM6.66667 15.8332V14.1665H13.3333V15.8332H6.66667ZM6.875 13.3332C5.91667 12.7637 5.15611 11.9998 4.59333 11.0415C4.03056 10.0832 3.74945 9.0415 3.75 7.9165C3.75 6.18039 4.35778 4.70484 5.57333 3.48984C6.78889 2.27484 8.26445 1.66706 10 1.6665C11.7356 1.66595 13.2114 2.27373 14.4275 3.48984C15.6436 4.70595 16.2511 6.1815 16.25 7.9165C16.25 9.0415 15.9689 10.0832 15.4067 11.0415C14.8444 11.9998 14.0839 12.7637 13.125 13.3332H6.875ZM7.375 11.6665H12.625C13.25 11.2221 13.7328 10.6734 14.0733 10.0207C14.4139 9.36789 14.5839 8.6665 14.5833 7.9165C14.5833 6.63873 14.1389 5.55539 13.25 4.6665C12.3611 3.77762 11.2778 3.33317 10 3.33317C8.72222 3.33317 7.63889 3.77762 6.75 4.6665C5.86111 5.55539 5.41667 6.63873 5.41667 7.9165C5.41667 8.6665 5.58695 9.36789 5.9275 10.0207C6.26806 10.6734 6.75056 11.2221 7.375 11.6665Z" fill="#5D7074"/>
</svg>
