<svg width="20" height="20" viewBox="0 0 20 20" fill="none" xmlns="http://www.w3.org/2000/svg">
<path d="M16.236 16.7948L11.0177 11.5765C10.601 11.9315 10.1219 12.2062 9.58021 12.4006C9.03854 12.5951 8.4941 12.6923 7.94688 12.6923C6.61243 12.6923 5.48299 12.2303 4.55854 11.3065C3.6341 10.3826 3.17188 9.2534 3.17188 7.91896C3.17187 6.58452 3.63354 5.45479 4.55687 4.52979C5.48021 3.60479 6.6091 3.14174 7.94354 3.14063C9.27799 3.13952 10.408 3.60174 11.3335 4.52729C12.2591 5.45285 12.7219 6.58257 12.7219 7.91646C12.7219 8.49535 12.6194 9.05563 12.4144 9.59729C12.2094 10.139 11.9399 10.6023 11.606 10.9873L16.8244 16.2048L16.236 16.7948ZM7.94771 11.8581C9.05326 11.8581 9.9866 11.4776 10.7477 10.7165C11.5088 9.95535 11.8894 9.02174 11.8894 7.91563C11.8894 6.80952 11.5088 5.87618 10.7477 5.11563C9.9866 4.35507 9.05326 3.97452 7.94771 3.97396C6.84215 3.9734 5.90854 4.35396 5.14687 5.11563C4.38521 5.87729 4.00465 6.81063 4.00521 7.91563C4.00576 9.02063 4.38632 9.95396 5.14687 10.7156C5.90743 11.4773 6.84076 11.8578 7.94688 11.8573" fill="#5D7074"/>
</svg>
