<svg width="20" height="20" viewBox="0 0 20 20" fill="none" xmlns="http://www.w3.org/2000/svg">
<path d="M9.9987 2.5C11.8404 2.5 13.332 3.99167 13.332 5.83333C13.332 7.675 11.8404 9.16667 9.9987 9.16667C8.15703 9.16667 6.66536 7.675 6.66536 5.83333C6.66536 3.99167 8.15703 2.5 9.9987 2.5ZM13.332 11.2833C13.332 12.1667 13.0987 14.225 11.507 16.525L10.832 12.5L11.6154 10.9333C11.0987 10.875 10.557 10.8333 9.9987 10.8333C9.44036 10.8333 8.8987 10.875 8.38203 10.9333L9.16536 12.5L8.49036 16.525C6.8987 14.225 6.66536 12.1667 6.66536 11.2833C4.6737 11.8667 3.33203 12.9167 3.33203 14.1667V17.5H16.6654V14.1667C16.6654 12.9167 15.332 11.8667 13.332 11.2833Z" fill="#5D7074"/>
</svg>
