<svg width="20" height="20" viewBox="0 0 20 20" fill="none" xmlns="http://www.w3.org/2000/svg">
<path d="M17.4987 13.3332V10.8332C17.4987 9.90817 16.757 9.1665 15.832 9.1665H10.832V6.6665H12.4987V1.6665H7.4987V6.6665H9.16537V9.1665H4.16536C3.24036 9.1665 2.4987 9.90817 2.4987 10.8332V13.3332H0.832031V18.3332H5.83203V13.3332H4.16536V10.8332H9.16537V13.3332H7.4987V18.3332H12.4987V13.3332H10.832V10.8332H15.832V13.3332H14.1654V18.3332H19.1654V13.3332H17.4987ZM9.16537 3.33317H10.832V4.99984H9.16537V3.33317ZM4.16536 16.6665H2.4987V14.9998H4.16536V16.6665ZM10.832 16.6665H9.16537V14.9998H10.832V16.6665ZM17.4987 16.6665H15.832V14.9998H17.4987V16.6665Z" fill="#5D7074"/>
</svg>
