<svg width="20" height="20" viewBox="0 0 20 20" fill="none" xmlns="http://www.w3.org/2000/svg">
<path d="M12.9167 11.6667L17.0833 15.8333L15.8333 17.0833L11.6667 12.9167V12.2583L11.4417 12.025C10.4617 12.87 9.21059 13.3343 7.91667 13.3333C6.48008 13.3333 5.10233 12.7627 4.0865 11.7468C3.07068 10.731 2.5 9.35326 2.5 7.91667C2.5 6.48008 3.07068 5.10233 4.0865 4.0865C5.10233 3.07068 6.48008 2.5 7.91667 2.5C9.35326 2.5 10.731 3.07068 11.7468 4.0865C12.7627 5.10233 13.3333 6.48008 13.3333 7.91667C13.3333 9.25833 12.8417 10.4917 12.025 11.4417L12.2583 11.6667H12.9167ZM7.91667 11.6667C10 11.6667 11.6667 10 11.6667 7.91667C11.6667 5.83333 10 4.16667 7.91667 4.16667C5.83333 4.16667 4.16667 5.83333 4.16667 7.91667C4.16667 10 5.83333 11.6667 7.91667 11.6667ZM10 8.33333H8.33333V10H7.5V8.33333H5.83333V7.5H7.5V5.83333H8.33333V7.5H10V8.33333Z" fill="#5D7074"/>
</svg>
