<svg width="20" height="20" viewBox="0 0 20 20" fill="none" xmlns="http://www.w3.org/2000/svg">
<g clip-path="url(#clip0_468_3125)">
<path d="M9.9987 19.1668C9.77768 19.1668 9.56572 19.079 9.40944 18.9228C9.25316 18.7665 9.16537 18.5545 9.16537 18.3335V15.8335H5.83203C5.39 15.8335 4.96608 15.6579 4.65352 15.3453C4.34096 15.0328 4.16536 14.6089 4.16536 14.1668V5.8335C4.16536 5.39147 4.34096 4.96755 4.65352 4.65498C4.96608 4.34242 5.39 4.16683 5.83203 4.16683H17.4987C17.9407 4.16683 18.3646 4.34242 18.6772 4.65498C18.9898 4.96755 19.1654 5.39147 19.1654 5.8335V14.1668C19.1654 14.6089 18.9898 15.0328 18.6772 15.3453C18.3646 15.6579 17.9407 15.8335 17.4987 15.8335H14.082L10.9987 18.9252C10.832 19.0835 10.6237 19.1668 10.4154 19.1668H9.9987ZM10.832 14.1668V16.7335L13.3987 14.1668H17.4987V5.8335H5.83203V14.1668H10.832ZM2.4987 12.5002H0.832031V2.50016C0.832031 2.05814 1.00763 1.63421 1.32019 1.32165C1.63275 1.00909 2.05667 0.833496 2.4987 0.833496H15.832V2.50016H2.4987V12.5002Z" fill="#5D7074"/>
</g>
<defs>
<clipPath id="clip0_468_3125">
<rect width="20" height="20" fill="white"/>
</clipPath>
</defs>
</svg>
