<svg width="40" height="40" viewBox="0 0 40 40" fill="none" xmlns="http://www.w3.org/2000/svg">
<path d="M20.0013 38.3337C19.5593 38.3337 19.1353 38.1581 18.8228 37.8455C18.5102 37.5329 18.3346 37.109 18.3346 36.667V31.667H11.668C10.7839 31.667 9.93607 31.3158 9.31095 30.6907C8.68582 30.0656 8.33463 29.2177 8.33463 28.3337V11.667C8.33463 10.7829 8.68582 9.93509 9.31095 9.30997C9.93607 8.68485 10.7839 8.33366 11.668 8.33366H35.0013C35.8854 8.33366 36.7332 8.68485 37.3583 9.30997C37.9834 9.93509 38.3346 10.7829 38.3346 11.667V28.3337C38.3346 29.2177 37.9834 30.0656 37.3583 30.6907C36.7332 31.3158 35.8854 31.667 35.0013 31.667H28.168L22.0013 37.8503C21.668 38.167 21.2513 38.3337 20.8346 38.3337H20.0013ZM21.668 28.3337V33.467L26.8013 28.3337H35.0013V11.667H11.668V28.3337H21.668ZM5.0013 25.0003H1.66797V5.00033C1.66797 4.11627 2.01916 3.26842 2.64428 2.6433C3.2694 2.01818 4.11725 1.66699 5.0013 1.66699H31.668V5.00033H5.0013V25.0003Z" fill="#2194F3"/>
</svg>
