<svg width="20" height="20" viewBox="0 0 20 20" fill="none" xmlns="http://www.w3.org/2000/svg">
<path d="M14.9987 15.4168C15.6904 15.4168 16.2487 14.8585 16.2487 14.1668C16.2487 13.4752 15.6904 12.9168 14.9987 12.9168C14.307 12.9168 13.7487 13.4752 13.7487 14.1668C13.7487 14.8585 14.307 15.4168 14.9987 15.4168ZM16.2487 7.91683H14.1654V10.0002H17.882L16.2487 7.91683ZM4.9987 15.4168C5.69036 15.4168 6.2487 14.8585 6.2487 14.1668C6.2487 13.4752 5.69036 12.9168 4.9987 12.9168C4.30703 12.9168 3.7487 13.4752 3.7487 14.1668C3.7487 14.8585 4.30703 15.4168 4.9987 15.4168ZM16.6654 6.66683L19.1654 10.0002V14.1668H17.4987C17.4987 15.5502 16.382 16.6668 14.9987 16.6668C13.6154 16.6668 12.4987 15.5502 12.4987 14.1668H7.4987C7.4987 15.5502 6.38203 16.6668 4.9987 16.6668C3.61536 16.6668 2.4987 15.5502 2.4987 14.1668H0.832031V5.00016C0.832031 4.07516 1.5737 3.3335 2.4987 3.3335H14.1654V6.66683H16.6654ZM2.4987 5.00016V12.5002H3.13203C3.59036 11.9918 4.25703 11.6668 4.9987 11.6668C5.74037 11.6668 6.40703 11.9918 6.86536 12.5002H12.4987V5.00016H2.4987Z" fill="#5D7074"/>
</svg>
