<svg width="20" height="20" viewBox="0 0 20 20" fill="none" xmlns="http://www.w3.org/2000/svg">
<path d="M17.5 11.875V10.625C17.4958 9.07503 17.0133 7.56414 16.1185 6.29859C15.2236 5.03304 13.9599 4.07453 12.5 3.55391V3.125C12.5 2.79348 12.3683 2.47554 12.1339 2.24112C11.8995 2.0067 11.5815 1.875 11.25 1.875H8.75C8.41848 1.875 8.10054 2.0067 7.86612 2.24112C7.6317 2.47554 7.5 2.79348 7.5 3.125V3.55391C6.04008 4.07453 4.77642 5.03304 3.88154 6.29859C2.98667 7.56414 2.5042 9.07503 2.5 10.625V11.875C2.16848 11.875 1.85054 12.0067 1.61612 12.2411C1.3817 12.4755 1.25 12.7935 1.25 13.125V15C1.25 15.3315 1.3817 15.6495 1.61612 15.8839C1.85054 16.1183 2.16848 16.25 2.5 16.25H17.5C17.8315 16.25 18.1495 16.1183 18.3839 15.8839C18.6183 15.6495 18.75 15.3315 18.75 15V13.125C18.75 12.7935 18.6183 12.4755 18.3839 12.2411C18.1495 12.0067 17.8315 11.875 17.5 11.875ZM16.25 10.625V11.875H12.5V4.89609C13.6125 5.38553 14.5591 6.18738 15.2247 7.20432C15.8904 8.22127 16.2466 9.40957 16.25 10.625ZM11.25 3.125V11.875H8.75V3.125H11.25ZM3.75 10.625C3.75343 9.40957 4.10959 8.22127 4.77525 7.20432C5.44092 6.18738 6.38747 5.38553 7.5 4.89609V11.875H3.75V10.625ZM17.5 15H2.5V13.125H17.5V15Z" fill="#5D7074"/>
</svg>
