<svg width="20" height="20" viewBox="0 0 20 20" fill="none" xmlns="http://www.w3.org/2000/svg">
<path d="M18.1245 2.5C18.1245 2.33424 18.0586 2.17527 17.9414 2.05806C17.8242 1.94085 17.6652 1.875 17.4995 1.875C14.0557 1.875 10.5221 5.75859 8.55961 8.33047C7.85873 8.11582 7.11727 8.06853 6.3948 8.1924C5.67233 8.31628 4.98897 8.60786 4.39963 9.04374C3.81028 9.47961 3.33138 10.0476 3.00137 10.7022C2.67136 11.3567 2.49945 12.0795 2.49946 12.8125C2.49946 15.225 0.972895 16.307 0.900238 16.357C0.78937 16.4319 0.705449 16.5404 0.660814 16.6665C0.616179 16.7926 0.613187 16.9297 0.652277 17.0576C0.691367 17.1856 0.770477 17.2976 0.877973 17.3772C0.985469 17.4568 1.11568 17.4999 1.24946 17.5H7.18696C7.91997 17.5 8.64277 17.3281 9.2973 16.9981C9.95183 16.6681 10.5198 16.1892 10.9557 15.5998C11.3916 15.0105 11.6832 14.3271 11.8071 13.6047C11.9309 12.8822 11.8836 12.1407 11.669 11.4398C14.2416 9.47734 18.1245 5.94375 18.1245 2.5ZM7.18696 16.25H2.70493C3.23227 15.5008 3.74946 14.3687 3.74946 12.8125C3.74946 12.1326 3.95106 11.468 4.32878 10.9027C4.7065 10.3374 5.24336 9.89684 5.87148 9.63666C6.4996 9.37649 7.19077 9.30841 7.85758 9.44105C8.52439 9.57369 9.13689 9.90108 9.61764 10.3818C10.0984 10.8626 10.4258 11.4751 10.5584 12.1419C10.691 12.8087 10.623 13.4999 10.3628 14.128C10.1026 14.7561 9.66202 15.293 9.09673 15.6707C8.53144 16.0484 7.86683 16.25 7.18696 16.25ZM9.71977 8.87109C9.98748 8.52422 10.2502 8.1974 10.508 7.89062C11.1391 8.31692 11.6825 8.86033 12.1088 9.49141C11.8015 9.7487 11.4747 10.0115 11.1284 10.2797C10.7642 9.71542 10.284 9.23523 9.71977 8.87109ZM13.0557 8.66172C12.5838 7.99597 12.0027 7.41485 11.337 6.94297C13.8198 4.24531 15.6924 3.42734 16.7979 3.2C16.5752 4.30625 15.7534 6.17891 13.0557 8.66172Z" fill="#5D7074"/>
</svg>
