<svg width="20" height="20" viewBox="0 0 20 20" fill="none" xmlns="http://www.w3.org/2000/svg">
<path d="M12.0833 4.58342L15.4167 7.91676M2.5 17.5001H5.83333L16.6667 6.66676C17.1087 6.22473 17.357 5.62521 17.357 5.00009C17.357 4.37497 17.1087 3.77545 16.6667 3.33342C16.2246 2.89139 15.6251 2.64307 15 2.64307C14.3749 2.64307 13.7754 2.89139 13.3333 3.33342L2.5 14.1668V17.5001Z" stroke="#5D7074" stroke-width="2" stroke-linecap="round" stroke-linejoin="round"/>
<path d="M10 6.66667L5.83333 2.5L2.5 5.83333L6.66667 10M5.83333 6.66667L4.58333 7.91667M13.3333 10L17.5 14.1667L14.1667 17.5L10 13.3333M13.3333 14.1667L12.0833 15.4167" stroke="#5D7074" stroke-width="2" stroke-linecap="round" stroke-linejoin="round"/>
</svg>
