<svg width="20" height="20" viewBox="0 0 20 20" fill="none" xmlns="http://www.w3.org/2000/svg">
<path d="M7.4987 8.33317H8.33203C8.55304 8.33317 8.76501 8.24537 8.92129 8.08909C9.07757 7.93281 9.16536 7.72085 9.16536 7.49984C9.16536 7.27882 9.07757 7.06686 8.92129 6.91058C8.76501 6.7543 8.55304 6.6665 8.33203 6.6665H7.4987C7.27768 6.6665 7.06572 6.7543 6.90944 6.91058C6.75316 7.06686 6.66536 7.27882 6.66536 7.49984C6.66536 7.72085 6.75316 7.93281 6.90944 8.08909C7.06572 8.24537 7.27768 8.33317 7.4987 8.33317ZM7.4987 9.99984C7.27768 9.99984 7.06572 10.0876 6.90944 10.2439C6.75316 10.4002 6.66536 10.6122 6.66536 10.8332C6.66536 11.0542 6.75316 11.2661 6.90944 11.4224C7.06572 11.5787 7.27768 11.6665 7.4987 11.6665H12.4987C12.7197 11.6665 12.9317 11.5787 13.088 11.4224C13.2442 11.2661 13.332 11.0542 13.332 10.8332C13.332 10.6122 13.2442 10.4002 13.088 10.2439C12.9317 10.0876 12.7197 9.99984 12.4987 9.99984H7.4987ZM16.6654 7.44984C16.6567 7.37328 16.6399 7.29786 16.6154 7.22484V7.14984C16.5753 7.06415 16.5219 6.98539 16.457 6.9165L11.457 1.9165C11.3881 1.85168 11.3094 1.79824 11.2237 1.75817C11.1988 1.75464 11.1736 1.75464 11.1487 1.75817C11.064 1.70962 10.9706 1.67846 10.8737 1.6665H5.83203C5.16899 1.6665 4.53311 1.9299 4.06426 2.39874C3.59542 2.86758 3.33203 3.50346 3.33203 4.1665V15.8332C3.33203 16.4962 3.59542 17.1321 4.06426 17.6009C4.53311 18.0698 5.16899 18.3332 5.83203 18.3332H14.1654C14.8284 18.3332 15.4643 18.0698 15.9331 17.6009C16.402 17.1321 16.6654 16.4962 16.6654 15.8332V7.49984V7.44984ZM11.6654 4.50817L13.8237 6.6665H12.4987C12.2777 6.6665 12.0657 6.57871 11.9094 6.42243C11.7532 6.26615 11.6654 6.05418 11.6654 5.83317V4.50817ZM14.9987 15.8332C14.9987 16.0542 14.9109 16.2661 14.7546 16.4224C14.5983 16.5787 14.3864 16.6665 14.1654 16.6665H5.83203C5.61102 16.6665 5.39906 16.5787 5.24278 16.4224C5.0865 16.2661 4.9987 16.0542 4.9987 15.8332V4.1665C4.9987 3.94549 5.0865 3.73353 5.24278 3.57725C5.39906 3.42097 5.61102 3.33317 5.83203 3.33317H9.9987V5.83317C9.9987 6.49621 10.2621 7.1321 10.7309 7.60094C11.1998 8.06978 11.8357 8.33317 12.4987 8.33317H14.9987V15.8332ZM12.4987 13.3332H7.4987C7.27768 13.3332 7.06572 13.421 6.90944 13.5772C6.75316 13.7335 6.66536 13.9455 6.66536 14.1665C6.66536 14.3875 6.75316 14.5995 6.90944 14.7558C7.06572 14.912 7.27768 14.9998 7.4987 14.9998H12.4987C12.7197 14.9998 12.9317 14.912 13.088 14.7558C13.2442 14.5995 13.332 14.3875 13.332 14.1665C13.332 13.9455 13.2442 13.7335 13.088 13.5772C12.9317 13.421 12.7197 13.3332 12.4987 13.3332Z" fill="#5D7074"/>
</svg>
