<svg width="20" height="20" viewBox="0 0 20 20" fill="none" xmlns="http://www.w3.org/2000/svg">
<path d="M11.968 11.8582C11.4109 12.3073 10.7169 12.5522 10.0013 12.5522C9.28573 12.5522 8.59171 12.3073 8.03464 11.8582C7.86446 11.7167 7.64506 11.6487 7.4247 11.669C7.20435 11.6893 7.00109 11.7963 6.85964 11.9665C6.71819 12.1367 6.65014 12.3561 6.67045 12.5764C6.69077 12.7968 6.79779 13.0001 6.96797 13.1415C7.81909 13.852 8.89261 14.2412 10.0013 14.2412C11.11 14.2412 12.1835 13.852 13.0346 13.1415C13.2048 13.0001 13.3118 12.7968 13.3322 12.5764C13.3525 12.3561 13.2844 12.1367 13.143 11.9665C13.0729 11.8822 12.987 11.8126 12.89 11.7615C12.7931 11.7105 12.687 11.679 12.5779 11.669C12.3576 11.6487 12.1382 11.7167 11.968 11.8582ZM7.50131 9.1665C7.66612 9.1665 7.82724 9.11763 7.96428 9.02606C8.10132 8.93449 8.20813 8.80435 8.27121 8.65207C8.33428 8.4998 8.35078 8.33225 8.31863 8.1706C8.28647 8.00894 8.2071 7.86046 8.09056 7.74392C7.97402 7.62737 7.82553 7.548 7.66388 7.51585C7.50223 7.4837 7.33467 7.5002 7.1824 7.56327C7.03013 7.62634 6.89998 7.73315 6.80841 7.8702C6.71685 8.00724 6.66797 8.16835 6.66797 8.33317C6.66797 8.55418 6.75577 8.76615 6.91205 8.92243C7.06833 9.07871 7.28029 9.1665 7.50131 9.1665ZM12.5013 7.49984C12.3365 7.49984 12.1754 7.54871 12.0383 7.64028C11.9013 7.73185 11.7945 7.862 11.7314 8.01427C11.6683 8.16654 11.6518 8.3341 11.684 8.49575C11.7161 8.6574 11.7955 8.80588 11.9121 8.92243C12.0286 9.03897 12.1771 9.11834 12.3387 9.15049C12.5004 9.18265 12.6679 9.16614 12.8202 9.10307C12.9725 9.04 13.1026 8.93319 13.1942 8.79615C13.2858 8.65911 13.3346 8.49799 13.3346 8.33317C13.3346 8.11216 13.2468 7.9002 13.0906 7.74392C12.9343 7.58764 12.7223 7.49984 12.5013 7.49984ZM10.0013 1.6665C8.35313 1.6665 6.74196 2.15525 5.37155 3.07092C4.00114 3.9866 2.93304 5.28809 2.30231 6.81081C1.67158 8.33353 1.50655 10.0091 1.8281 11.6256C2.14964 13.2421 2.94331 14.727 4.10875 15.8924C5.27419 17.0578 6.75905 17.8515 8.37555 18.173C9.99206 18.4946 11.6676 18.3296 13.1903 17.6988C14.7131 17.0681 16.0145 16 16.9302 14.6296C17.8459 13.2592 18.3346 11.648 18.3346 9.99984C18.3346 8.90549 18.1191 7.82186 17.7003 6.81081C17.2815 5.79976 16.6677 4.8811 15.8939 4.10728C15.12 3.33346 14.2014 2.71963 13.1903 2.30084C12.1793 1.88205 11.0957 1.6665 10.0013 1.6665ZM10.0013 16.6665C8.68276 16.6665 7.39383 16.2755 6.2975 15.543C5.20118 14.8104 4.34669 13.7692 3.84211 12.5511C3.33752 11.3329 3.2055 9.99244 3.46274 8.69924C3.71997 7.40603 4.35491 6.21814 5.28726 5.28579C6.21961 4.35344 7.4075 3.7185 8.7007 3.46127C9.99391 3.20403 11.3344 3.33606 12.5525 3.84064C13.7707 4.34522 14.8119 5.19971 15.5444 6.29604C16.277 7.39236 16.668 8.6813 16.668 9.99984C16.668 11.7679 15.9656 13.4636 14.7154 14.7139C13.4651 15.9641 11.7694 16.6665 10.0013 16.6665Z" fill="#5D7074"/>
</svg>
