<svg width="358" height="564" viewBox="0 0 358 564" fill="none" xmlns="http://www.w3.org/2000/svg">
<path d="M137.085 463.759C119.276 463.759 113.933 452.673 107.779 431.425C107.394 429.956 107.303 428.427 107.51 426.923C107.717 425.419 108.218 423.971 108.985 422.662C109.791 421.017 111.212 419.757 112.941 419.154C120.38 417.293 128.012 417.158 135.395 417.023C145.539 416.842 155.143 416.673 164.566 412.511C167.69 410.954 170.703 409.183 173.584 407.211C182.195 401.673 191.945 395.402 200.737 398.335C206.655 400.308 209.924 403.195 210.465 406.917C211.716 415.545 197.435 425.526 187.989 432.135C186.309 433.263 184.855 434.323 183.728 435.169C180.021 438.128 176.501 441.314 173.189 444.711C165.107 452.605 155.932 461.628 145.145 463.15C142.476 463.544 139.783 463.747 137.085 463.759ZM113.775 422.436C112.964 422.848 112.313 423.518 111.927 424.342C110.848 426.199 110.532 428.403 111.047 430.489C117.901 454.252 122.59 462.947 144.728 459.812C154.421 458.436 162.763 450.237 170.878 442.308C174.294 438.805 177.927 435.52 181.756 432.474C182.883 431.594 184.405 430.568 186.107 429.372C193.805 423.992 208.12 413.977 207.174 407.414C206.824 405.056 204.322 403.094 199.723 401.56C192.464 399.135 183.435 404.944 175.466 410.064C172.437 412.142 169.261 413.996 165.964 415.613C155.909 420.124 145.528 420.271 135.53 420.451C128.293 420.53 120.843 420.711 113.775 422.436Z" fill="#2196F3" fillOpacity="0.04"/>
<path d="M436.803 242.414C431.941 242.386 427.21 240.832 423.277 237.97C408.624 227.628 402.492 202.68 401.308 190.929C399.674 174.541 405.975 161.414 412.062 148.737C415.353 141.88 418.746 134.797 420.921 127.195C422.747 120.812 422.928 112.647 423.176 104.008C423.638 84.0451 424.168 61.4211 446.012 54.1353C450.859 52.5113 452.776 53.4699 454.68 54.8684C454.917 55.0376 455.154 55.218 455.413 55.3872C455.526 55.4561 455.631 55.5354 455.729 55.6241L457.848 57.7895C457.924 57.8602 457.993 57.9397 458.051 58.0263C460.835 62.1654 459.64 70.3647 458.242 74.5714C452.358 92.2218 446.351 113.312 446.351 135.868C446.351 146.605 451.231 154.917 456.405 163.726C464.735 177.925 474.181 194.019 462.627 222.936C458.614 232.974 451.885 239.436 443.183 241.613C441.098 242.141 438.955 242.41 436.803 242.414ZM450.183 56.6617C449.092 56.7261 448.016 56.9542 446.993 57.3383C427.403 63.8797 426.929 84.3158 426.467 104.086C426.264 112.951 426.073 121.32 424.122 128.132C421.868 136.026 418.408 143.222 415.105 150.192C408.951 163.026 403.134 175.139 404.679 190.59C405.986 203.628 412.569 226.263 425.216 235.195C427.649 236.967 430.449 238.168 433.409 238.711C436.369 239.254 439.412 239.124 442.315 238.331C451.93 235.929 456.969 227.944 459.437 221.673C470.382 194.301 461.77 179.628 453.441 165.44C448.267 156.632 442.924 147.53 442.924 135.868C442.924 112.827 449.022 91.4098 454.985 73.5C456.27 69.6541 457.059 62.9098 455.278 60.0451L453.407 58.1391C453.147 57.9699 452.899 57.7895 452.651 57.609C451.972 57.0023 451.094 56.6654 450.183 56.6617Z" fill="#2196F3" fillOpacity="0.04"/>
<path d="M131.945 312.992C131.24 312.995 130.536 312.946 129.838 312.846C124.562 312.09 120.82 308.538 118.746 302.278C116.672 296.019 120.347 290.019 123.909 284.233C126.163 280.602 128.248 277.162 128.778 273.959C133.467 245.763 117.1 227.38 80.1176 219.158L78.5846 218.82C73.1065 217.613 67.448 216.372 62.5673 213.553C62.2169 213.347 61.8948 213.097 61.6092 212.808C60.9639 212.186 60.5185 211.385 60.3301 210.508C60.1417 209.632 60.2187 208.718 60.5514 207.886C60.8841 207.053 61.4573 206.338 62.1978 205.833C62.9384 205.328 63.8127 205.055 64.709 205.049C73.0051 204.835 80.1401 204.226 86.4411 203.695C107.283 201.947 122.331 200.684 154.162 214.838C175.241 224.211 182.342 240.88 176.458 267.305C174.652 275.536 171.326 283.358 166.651 290.368C162.086 296.944 145.1 312.992 131.945 312.992ZM105.107 205.996C99.1895 205.996 93.3056 206.492 86.7341 207.045C80.3881 207.586 73.2079 208.173 64.7991 208.41C64.5629 208.395 64.328 208.455 64.1277 208.581C63.9275 208.708 63.7721 208.894 63.6835 209.113C63.595 209.333 63.5778 209.575 63.6344 209.805C63.691 210.035 63.8185 210.241 63.9989 210.395C64.0774 210.472 64.1643 210.54 64.2581 210.598C68.6879 213.158 74.0872 214.342 79.306 215.492L80.8503 215.831C119.907 224.515 137.209 244.252 132.115 274.477C131.472 278.335 129.094 282.203 126.794 285.959C123.48 291.338 120.358 296.425 121.947 301.184C123.616 306.192 126.355 308.898 130.322 309.474C141.527 311.086 159.144 295.229 163.867 288.406C168.273 281.742 171.421 274.326 173.155 266.526C178.69 241.613 172.411 226.602 152.787 217.883C131.438 208.41 118.171 205.996 105.107 205.996Z" fill="#2196F3" fillOpacity="0.04"/>
<path d="M82.214 12.9361C79.8019 17.0075 77.2995 21.2256 77.2995 26.4699C77.2995 30.5865 79.0241 34.2744 80.6811 37.8496C82.0676 40.4722 83.0878 43.2728 83.7132 46.1729C85.0095 54.0677 80.3316 60.8346 76.2512 65.1992C63.7846 78.3383 38.0284 88.1955 21.132 86.3008C12.6217 85.3421 7.01963 82.4887 4.01005 77.594C-1.87385 68.0414 3.22102 52.1617 8.45116 38.0301C9.24019 35.9098 10.0067 33.5865 10.8182 31.1278C13.6475 22.5902 16.8487 12.9023 22.0901 7.53383C22.6537 6.96992 23.33 6.31579 24.0965 5.58271C25.7083 4.01504 27.6584 2.13158 29.5858 0.0338346H24.9757C23.8485 1.16165 22.7213 2.2218 21.8083 3.14662C21.0305 3.90226 20.3317 4.57895 19.7568 5.15414C13.8955 11.0865 10.559 21.1692 7.61703 30.0677C6.81673 32.5038 6.06152 34.7932 5.29504 36.8346C-0.216888 51.7331 -5.57101 68.515 1.19209 79.3647C4.74272 85.1278 11.3367 88.5902 20.8276 89.6617C22.366 89.8317 23.9127 89.9145 25.4604 89.9098C43.0219 89.9098 66.7716 80.1654 78.7761 67.5226C85.4378 60.5075 88.3234 52.9398 87.1173 45.6316C86.4442 42.423 85.3329 39.3225 83.8146 36.4173C82.2366 33.0338 80.7374 29.8421 80.7374 26.4699C80.7374 22.1504 82.8904 18.5752 85.1785 14.6617C87.6471 10.4887 90.3748 5.85338 90.172 0H86.7904C86.9595 4.89474 84.6037 8.81955 82.214 12.9361Z" fill="#2196F3" fillOpacity="0.04"/>
<path d="M-40.3784 13.1278C-36.3657 16.0601 -31.0904 16.7256 -24.7106 15.1128C-19.3226 13.7481 -13.3035 7.6015 -6.47275 0.0338332H-11.0604C-16.5272 5.97744 -21.577 10.8271 -25.5334 11.8308C-30.9777 13.2068 -35.1708 12.7331 -38.3833 10.3985C-41.3591 8.21052 -43.2978 4.54511 -44.6166 0.0338332H-48.1673C-46.6794 5.56015 -44.3123 10.2519 -40.3784 13.1278Z" fill="#2196F3" fillOpacity="0.04"/>
<path d="M116.165 24.9248C115.128 31.8045 113.505 40.7143 110.101 48.609C104.202 61.9772 96.5407 74.4946 87.3202 85.8271C82.8115 91.3647 76.5782 96.203 70.5139 100.895C68.857 102.169 67.2338 103.421 65.6896 104.673C60.2116 109.116 53.9213 112.448 47.17 114.485C10.2096 125.662 -6.77704 95.7406 -23.2001 66.8008C-35.7682 44.6729 -47.6374 23.718 -67.7689 21.2481C-77.9136 19.985 -87.9793 21.1692 -98 23.391V26.8647C-88.047 24.609 -78.0489 23.3684 -68.186 24.609C-49.734 26.8647 -38.2706 47.0977 -26.1421 68.4699C-12.2213 93 3.28871 120.35 32.2122 120.35C37.6267 120.296 43.0041 119.448 48.1731 117.835C55.3419 115.681 62.0202 112.145 67.8312 107.425C69.3642 106.195 70.9761 104.955 72.6105 103.68C78.8325 98.8759 85.2575 93.9135 89.9804 88.0714C99.3985 76.4751 107.223 63.6697 113.245 49.9962C116.807 41.6955 118.476 32.5038 119.535 25.4211C120.966 17.0262 121.057 8.45734 119.806 0.0338332H116.424C117.619 6.94737 117.664 15.1015 116.165 24.9248Z" fill="#2196F3" fillOpacity="0.04"/>
<path d="M465.592 356.425C461.384 356.104 457.159 356.052 452.945 356.267C430.221 357.609 409.819 368.673 390.082 379.32C375.834 387.023 361.091 394.996 345.772 399.079C308.023 409.162 277.769 397.331 258.303 364.861C252.114 354.553 247.82 346.421 248.823 335.436C250.255 319.647 255.992 306.113 262.067 291.846C265.088 284.741 268.211 277.387 270.758 269.729C274.264 259.195 274.793 249.102 275.357 238.41C275.537 235.026 275.718 231.417 276.022 227.876C276.54 221.549 278.547 215.143 280.531 208.951C282.137 204.168 283.447 199.29 284.453 194.346C287.553 177.316 279.032 147.09 267.241 133.342C252.362 115.962 230.811 108.462 203.195 111.045C175.128 113.673 149.631 125.898 136.928 132.959C118.047 143.459 84.6263 158.898 73.0275 144.395C72.3189 143.531 71.8017 142.526 71.5103 141.447C71.2188 140.368 71.1597 139.239 71.3368 138.135C72.3174 130.353 82.0337 121.218 87.6133 117C91.9642 113.741 96.6308 110.492 101.139 107.357C123.187 92.0414 145.979 76.1955 150.431 47.2331C153.215 29.0977 151.277 14.7293 145.652 0.078947H142C147.794 14.6617 149.89 28.8158 147.083 46.7143C142.811 74.1992 120.674 89.6165 99.1669 104.538C94.6582 107.684 89.9353 110.955 85.5393 114.248C83.8823 115.5 69.3304 126.654 67.9327 137.662C67.7003 139.215 67.7948 140.8 68.2102 142.315C68.6256 143.83 69.3527 145.241 70.3448 146.459C76.5444 154.218 88.1656 155.65 104.904 150.711C114.722 147.812 126.028 142.816 138.528 135.868C151.029 128.921 176.007 116.932 203.465 114.372C229.92 111.891 250.503 119.008 264.637 135.496C275.684 148.387 283.98 177.767 281.083 193.692C280.098 198.498 278.821 203.24 277.262 207.891C275.267 214.263 273.204 220.85 272.652 227.549C272.347 231.147 272.156 234.733 271.975 238.195C271.434 248.65 270.916 258.496 267.546 268.647C265.043 276.169 261.91 283.455 258.956 290.492C253.05 304.41 246.929 318.801 245.43 335.109C244.303 347.086 249.071 356.075 255.372 366.575C271.006 392.639 293.257 405.97 320.602 405.97C329.396 405.897 338.142 404.673 346.618 402.327C362.33 398.143 377.243 390.068 391.705 382.274C411.115 371.774 431.156 360.914 453.159 359.628C457.291 359.415 461.433 359.467 465.558 359.786L465.592 356.425Z" fill="#2196F3" fillOpacity="0.04"/>
<path d="M465.592 300.395C447.842 306.337 430.643 313.816 414.192 322.748C408.355 326.034 402.744 329.708 397.397 333.744C391.615 337.906 385.641 342.214 379.261 345.406C359.039 355.556 322.361 355.556 305.385 340.466C282.3 319.929 289.03 294.677 295.534 270.248C298.013 260.955 302.173 249.395 306.591 237.147C321.763 195.011 340.655 142.568 319.915 111.44C296.819 76.782 245.904 78.6654 205.956 91.985C202.778 93.0451 198.833 94.8271 194.684 96.7218C181.778 102.553 164.138 110.56 154.399 103.252C151.48 101.064 149.89 98.7406 149.53 96.2368C148.831 91.2519 152.99 85.7481 157.003 80.4474C158.581 78.3722 160.069 76.3985 161.297 74.4248C162.943 71.797 164.679 69.1466 166.482 66.3383C178.036 48.485 191.145 28.2632 188.744 6.56391C188.491 4.35891 188.073 2.17606 187.493 0.0338332H183.987C184.644 2.29935 185.112 4.6156 185.385 6.95864C187.64 27.4173 174.891 47.0977 163.642 64.4774C161.816 67.297 160.091 69.9586 158.434 72.609C157.307 74.4586 155.83 76.3647 154.309 78.3947C149.868 84.2594 145.291 90.3271 146.182 96.7105C146.666 100.094 148.752 103.241 152.37 105.959C163.642 114.462 181.677 106.331 196.06 99.8008C200.151 97.9511 204.006 96.203 207.016 95.1992C245.78 82.2744 295.06 80.2444 317.097 113.323C336.89 143.03 318.325 194.583 303.401 235.996C298.971 248.312 294.778 259.951 292.265 269.38C285.502 294.789 278.491 321.079 303.142 342.992C311.709 350.617 325.257 355.162 341.263 355.793C342.503 355.793 343.743 355.872 344.983 355.872C358.171 355.872 371.314 353.154 380.771 348.429C387.399 345.113 393.486 340.726 399.37 336.485C404.598 332.541 410.08 328.947 415.781 325.726C431.741 317.075 448.404 309.794 465.592 303.959V300.395Z" fill="#2196F3" fillOpacity="0.04"/>
<path d="M465.592 0.0338332H465.321C465.321 4.54511 462.774 8.94361 457.826 13.2744C435.158 33.0789 404.51 29.7406 374.842 26.5038C360.358 24.9248 345.389 23.2895 331.874 24.5188C320.005 25.6466 309.849 31.1053 300.02 36.4173C290.191 41.7293 281.14 46.6466 270.33 47.8421C256.206 49.4211 241.023 48.2143 229.751 44.6391C214.365 39.7556 205.765 30.8684 204.187 18.2143C203.42 12.1128 204.592 6.19173 206.058 0.0338332H202.586C201.177 6.06767 200.027 12.2594 200.828 18.6429C204.085 44.9323 234.001 51.9135 257.773 51.9135C262.092 51.9135 266.408 51.6801 270.702 51.2143C282.165 49.9398 292.062 44.5827 301.632 39.3947C311.596 34.0038 321.008 28.906 332.178 27.891C345.355 26.6955 359.501 28.2293 374.47 29.8647C404.904 33.1805 436.308 36.6316 460.057 15.812C462.174 14.008 464.035 11.9251 465.592 9.6203L465.592 0.0338332Z" fill="#2196F3" fillOpacity="0.04"/>
<path d="M321.154 0.0338332C319.171 0.687968 317.13 1.36466 315.034 2.08646C297.551 7.99624 277.735 14.7068 262.056 5.31203C259.725 3.98843 257.698 2.19032 256.105 0.0338332H252.069C254.007 3.48779 256.879 6.32554 260.354 8.2218C266.386 11.7505 273.275 13.542 280.26 13.3985C292.163 13.3985 304.619 9.18045 316.116 5.28947C319.734 4.06015 323.161 2.89849 326.452 1.90601C329.262 1.08991 332.125 0.464429 335.019 0.0338332H321.154Z" fill="#2196F3" fillOpacity="0.04"/>
<path d="M465.592 81.2368C465.457 81.688 465.299 82.1504 465.164 82.6128C460.903 97.5451 461.545 114.192 465.592 130.692V81.2368Z" fill="#2196F3" fillOpacity="0.04"/>
<path d="M465.592 284.47L463.856 284.932C455.966 287.098 448.864 291.237 442.045 295.229C438.663 297.18 435.282 299.211 431.765 300.947C411.611 311.03 364.483 323.154 346.843 305.459C306.546 265.184 331.592 202.556 349.875 156.801C351.194 153.417 352.873 150.18 354.643 146.65C358.137 139.759 361.744 132.632 362.691 125.075C364.404 111.361 353.212 103.647 343.337 96.7782C331.919 88.8835 322.056 82.1165 329.157 67.8496C331.04 64.0714 334.016 60.5188 336.901 57.0677C337.803 55.9398 338.705 54.9135 339.561 53.8421C343.777 48.5639 351.555 49.7481 358.408 50.7857C359.603 50.9662 360.752 51.1466 361.857 51.282C376.86 53.1654 412.005 59.8647 414.418 81.5865C416.199 97.5677 408.691 109.286 400.756 121.68C397.512 126.571 394.525 131.626 391.806 136.827C389.281 141.936 386.813 146.65 384.435 151.162C368.575 181.173 358.104 201 380.219 239.718C385.483 248.944 396.811 265.162 413.505 270.169C427.256 274.297 446.565 271.883 465.603 264.53V260.808C446.858 268.263 427.628 270.891 414.474 266.944C398.908 262.274 388.165 246.835 383.15 238.049C361.958 200.944 371.54 182.786 387.422 152.752C389.822 148.241 392.302 143.504 394.85 138.417C397.501 133.315 400.421 128.357 403.597 123.564C411.487 111.158 419.67 98.4361 417.765 81.2707C415.094 57.1579 378.066 49.9624 362.274 47.9887C361.147 47.8534 360.02 47.6729 358.893 47.5038C351.521 46.3759 342.334 44.9774 336.89 51.7895C336.056 52.8383 335.177 53.8872 334.286 54.9586C331.13 58.4423 328.388 62.2799 326.114 66.3947C317.694 83.2331 329.744 91.5677 341.387 99.6203C351.352 106.523 360.775 113.03 359.31 124.714C358.442 131.684 354.97 138.541 351.6 145.173C349.875 148.556 348.094 152.109 346.708 155.56C328.075 202.173 302.556 265.996 344.453 307.895C351.712 315.169 363.187 317.898 375.812 317.898C396.349 317.898 419.918 310.658 433.298 303.981C436.882 302.188 440.388 300.135 443.769 298.15C450.397 294.259 457.296 290.256 464.769 288.203L465.614 287.966L465.592 284.47Z" fill="#2196F3" fillOpacity="0.04"/>
<path d="M465.592 526.85C461.241 527.808 456.901 528.733 452.629 529.635C432.284 533.955 413.076 538.038 400.215 544.477C390.567 549.297 381.919 555.902 374.73 563.944H379.396C385.848 557.229 393.4 551.667 401.726 547.5C414.204 541.263 433.208 537.226 453.328 532.951C457.375 532.094 461.478 531.214 465.592 530.312V526.85Z" fill="#2196F3" fillOpacity="0.04"/>
<path d="M249.364 551.876C245.475 532.432 226.009 526.85 208.786 521.932C195.891 518.233 183.706 514.748 180.527 506.075C177.89 498.914 181.339 488.323 191.078 473.707C195.531 466.838 201.764 461.307 209.112 457.703C218.761 452.876 227.305 445.726 235.218 435.835C237.698 432.744 239.445 428.82 241.136 425.03C245.16 416.008 249.026 407.391 262.316 407.391C264.313 407.403 266.306 407.569 268.278 407.887C278.423 409.444 283.698 414.271 289.3 419.38C297.811 427.15 306.614 435.169 332.212 430.917C358.318 426.564 386.317 414.068 411.115 403.049L415.488 401.098C420.702 398.652 425.768 395.903 430.66 392.865C438.765 388.049 447.151 383.053 456.586 381.18C459.618 380.571 462.65 380.12 465.603 379.816V376.432C462.379 376.759 459.133 377.233 455.875 377.887C445.911 379.872 437.277 385.015 428.925 389.977C424.145 392.949 419.196 395.638 414.102 398.03L409.717 399.981C385.178 410.921 357.348 423.327 331.66 427.601C307.707 431.605 299.873 424.466 291.589 416.898C285.862 411.677 279.945 406.286 268.808 404.56C248 401.346 242.714 413.211 238.059 423.677C236.656 427.246 234.82 430.628 232.592 433.748C224.983 443.244 216.811 450.102 207.613 454.703C199.762 458.584 193.095 464.5 188.305 471.835C177.777 487.624 174.305 498.902 177.382 507.248C181.158 517.523 194.144 521.244 207.884 525.18C224.927 530.064 242.556 535.117 246.039 552.541C246.788 556.305 247.288 560.114 247.538 563.944H250.92C250.666 559.891 250.146 555.86 249.364 551.876Z" fill="#2196F3" fillOpacity="0.04"/>
<path d="M465.592 496.489C462.064 497.989 458.581 499.5 455.154 501C433.264 510.508 412.591 519.485 388.233 524.368C375.214 526.974 360.053 529.556 357.529 529.308C348.962 523.387 337.239 502.985 334.985 493.838C330.127 474.406 348.804 460.759 363.818 449.797C366.354 447.936 368.755 446.188 370.965 444.462C379.294 437.989 388.075 436.883 397.374 435.711C403.233 435.163 409.022 434.029 414.654 432.327C421.673 429.777 428.515 426.763 435.135 423.305C443.307 419.267 451.75 415.094 460.091 413.008C461.883 412.556 463.732 412.218 465.603 411.936V408.553C463.472 408.849 461.357 409.255 459.268 409.771C450.578 411.947 441.966 416.199 433.636 420.316C427.155 423.701 420.456 426.651 413.583 429.147C408.16 430.785 402.587 431.877 396.946 432.406C387.602 433.59 377.953 434.808 368.891 441.857C366.726 443.538 364.382 445.241 361.823 447.124C346.043 458.684 326.294 473.064 331.705 494.718C334.185 504.665 346.257 525.902 355.872 532.32C356.074 532.455 356.401 532.669 357.923 532.669C360.91 532.669 368.541 531.812 388.898 527.741C413.617 522.789 434.448 513.744 456.529 504.158L465.625 500.233L465.592 496.489Z" fill="#2196F3" fillOpacity="0.04"/>
<path d="M465.592 472.353C461.5 473.921 457.453 475.545 453.441 477.147C436.68 483.914 419.332 490.85 400.937 492.519C388.368 493.647 380.805 492.18 380.174 488.459C378.832 480.564 402.639 462.756 416.683 459.237C430.119 455.853 444.378 452.041 457.634 446.741C459.629 445.94 462.368 444.947 465.592 443.853V440.323C461.421 441.711 458.152 442.883 456.383 443.594C443.307 448.827 429.184 452.617 415.86 456C402.537 459.383 374.955 477.936 376.849 489.068C377.874 495.147 386.148 496.376 393.136 496.376C396.428 496.376 399.426 496.105 401.241 495.936C420.132 494.222 437.705 487.162 454.703 480.338C458.299 478.895 461.928 477.44 465.592 476.019V472.353Z" fill="#2196F3" fillOpacity="0.04"/>
<path d="M427.459 563.944H427.267C425.482 563.521 423.621 563.54 421.846 564L427.459 563.944Z" fill="#2196F3" fillOpacity="0.04"/>
<path d="M465.592 554.177C461.868 556.379 458.946 559.714 457.251 563.695C457.219 563.776 457.193 563.859 457.172 563.944H460.846C461.982 561.729 463.605 559.802 465.592 558.305V554.177Z" fill="#2196F3" fillOpacity="0.04"/>
<path d="M324.919 519.812C316.116 513.214 310.66 506.786 306.084 497.617C302.094 489.632 299.975 481.117 297.923 472.883C295.308 462.35 292.592 451.455 285.953 441.485C283.18 437.323 278.829 434.921 273.012 434.335C262.473 433.297 250.784 438.586 248.834 440.538C245.205 444.169 241.823 447.135 238.836 449.752C229.999 457.511 223.619 463.117 220.091 477.237C217.318 488.312 230.822 496.241 245.115 504.632C257.356 511.827 270.014 519.293 271.84 528.406C272.843 533.098 271.716 543.643 270.589 555.801C270.33 558.429 270.059 561.158 269.8 563.944H273.182C273.43 561.271 273.689 558.654 273.937 556.128C275.211 543.169 276.191 532.929 275.188 527.741C273.058 517.105 259.734 509.289 246.851 501.711C233.674 493.985 221.241 486.677 223.394 478.026C226.663 464.932 232.411 459.891 241.091 452.267C244.111 449.617 247.538 446.628 251.235 442.895C252.498 441.632 261.662 437.56 270.262 437.56C271.085 437.56 271.897 437.56 272.697 437.673C277.442 438.147 280.97 440.053 283.157 443.312C289.469 452.786 291.983 462.914 294.654 473.639C296.751 482.053 298.904 490.748 303.063 499.071C307.899 508.748 313.647 515.526 322.89 522.462C332.64 529.771 330.916 548.335 328.233 563.887H331.615C334.421 547.635 336.022 528.147 324.919 519.812Z" fill="#2196F3" fillOpacity="0.04"/>
<path d="M233.629 372.011C219.054 362.289 196.826 375.395 175.331 387.981C163.225 395.098 151.784 401.808 143.228 403.365C120.55 407.492 99.9559 406.342 76.0371 403.365C71.0775 402.744 65.419 400.579 59.4449 398.289C48.9058 394.252 38.0285 390.09 28.4587 393.282C17.7279 396.857 14.7859 418.094 12.4301 435.147C11.3029 442.906 10.3336 450.248 8.83441 453.327C8.20319 454.049 4.58492 455.966 1.10193 457.838C-15.3888 466.624 -49.7002 484.906 -61.7498 517.376C-65.8415 528.395 -69.4936 542.086 -61.3553 550.218C-51.2107 560.368 -30.3465 550.444 -17.8798 544.523C-15.8509 543.553 -14.0925 542.718 -12.661 542.109C13.8955 530.718 50.8783 519.801 76.1949 532.466C88.887 538.816 101.692 551.346 111.228 563.966H115.5C105.547 550.229 91.7275 536.459 77.7053 529.444C69.1613 525.169 59.4224 523.432 49.2327 523.432C27.8162 523.432 4.4384 531.09 -13.9911 538.996C-15.4789 539.628 -17.2599 540.485 -19.3339 541.466C-31.0003 547.004 -50.5231 556.274 -58.9657 547.827C-65.7288 541.06 -62.3472 528.654 -58.5824 518.56C-46.9724 487.252 -13.4613 469.398 2.69126 460.805C9.09367 457.421 11.1564 456.293 11.8327 454.895C13.5911 451.365 14.6056 444.056 15.7779 435.598C17.897 420.316 20.7938 399.383 29.5295 396.474C37.9383 393.665 48.252 397.602 58.2276 401.436C64.4158 403.805 70.2434 406.038 75.6088 406.714C99.8545 409.737 120.696 410.898 143.837 406.714C152.979 405.056 164.668 398.188 177.044 390.925C196.68 379.387 218.941 366.304 231.746 374.842C242.308 381.891 234.474 397.015 229.289 407.019C228.748 408.056 228.241 409.038 227.79 409.94C221.094 423.338 201.357 447.88 186.862 454.32L184.844 455.211C170.89 461.368 147.546 471.677 145.246 487.805C142.18 509.233 161.658 524.515 182.274 540.654C191.81 548.109 201.436 555.677 208.831 563.966H213.339C205.528 554.549 194.808 546.158 184.371 538.026C164.544 522.519 145.821 507.868 148.605 488.335C150.645 474.056 173.786 463.838 186.219 458.357L188.248 457.455C203.634 450.609 223.743 425.662 230.822 411.496L232.299 408.62C237.686 398.154 246.704 380.741 233.629 372.011Z" fill="#2196F3" fillOpacity="0.04"/>
<path d="M158.761 553.083C154.038 546.462 149.845 539.132 145.787 532.038C143.262 527.628 140.647 523.015 137.897 518.729C133.05 510.97 130.886 502.038 128.801 493.387C126.479 483.846 124.089 473.977 118.092 465.575C109.785 453.925 98.7274 448.658 88.0417 443.47C81.5604 440.346 74.8424 437.109 68.6429 432.462C66.6365 430.951 64.4272 428.019 62.0939 424.917C56.2326 417.113 48.9284 407.402 38.6598 412.511C33.3395 415.173 30.1045 418.444 28.7744 422.515C26.52 429.282 30.3412 436.635 33.6664 443.098C36.2589 448.117 38.7049 452.876 37.341 455.617C34.9401 460.421 27.7148 462.688 21.335 464.639C18.3801 465.468 15.4935 466.524 12.7008 467.797C6.99721 470.65 -42.9032 496.32 -37.8083 518.301C-37.6443 519.259 -37.2323 520.158 -36.6133 520.908C-35.9944 521.658 -35.19 522.233 -34.2803 522.575C-27.3819 525.124 -13.0103 515.165 2.36449 503.842C5.07872 501.719 7.90446 499.742 10.8296 497.921C31.8629 487.41 62.5674 481.128 80.2754 492.203C113.313 512.865 121.147 527.504 133.005 549.654C135.372 554.075 137.897 558.789 140.794 563.876H144.694C141.403 558.169 138.596 552.936 135.981 548.086C124.303 526.263 115.872 510.496 82.0676 489.35C74.6169 484.703 65.6784 482.91 56.458 482.91C38.9078 482.91 20.3881 489.395 9.31921 494.921C6.19184 496.81 3.1806 498.885 0.301735 501.135C-9.38077 508.274 -27.4044 521.549 -33.1643 519.417C-33.5465 519.265 -33.8798 519.011 -34.1282 518.683C-34.3765 518.355 -34.5305 517.966 -34.5733 517.556C-38.2367 501.767 -4.29717 480.079 14.1548 470.842C16.7921 469.66 19.5121 468.673 22.2931 467.887C29.3042 465.688 37.2621 463.195 40.328 457.105C42.4697 452.831 39.6404 447.338 36.6421 441.519C33.6438 435.699 30.1834 429 31.9643 423.541C32.9901 420.383 35.6727 417.756 40.1364 415.523C47.3278 411.914 52.6369 417.97 59.3661 426.902C61.8459 430.207 64.1905 433.331 66.5801 435.124C73.0389 439.974 79.9034 443.278 86.5425 446.47C97.3184 451.658 107.497 456.553 115.308 467.492C120.944 475.387 123.131 484.489 125.453 494.143C127.606 503.053 129.838 512.256 134.978 520.477C137.649 524.752 140.242 529.286 142.744 533.673C146.847 540.835 151.085 548.244 155.909 555C158.274 558.14 160.878 561.092 163.698 563.831L163.766 563.898H168.478C167.7 563.075 166.899 562.263 166.122 561.462C163.463 558.857 161.002 556.056 158.761 553.083Z" fill="#2196F3" fillOpacity="0.04"/>
<path d="M-6.45013 560.312C-11.1372 560.837 -15.7193 562.061 -20.044 563.944H-8.29871C-7.58858 563.831 -6.87846 563.729 -6.1796 563.684C0.405754 563.198 7.02084 563.285 13.5912 563.944H33.5649C20.5016 560.628 6.99616 559.403 -6.45013 560.312Z" fill="#2196F3" fillOpacity="0.04"/>
<path d="M-18.094 382.59C-21.6559 380.673 -25.0149 378.857 -28.0132 377.053C-34.3146 373.119 -40.3402 368.759 -46.0481 364.004C-60.0026 352.895 -73.202 342.395 -98 344.019V347.402C-74.3291 345.801 -62.2007 355.466 -48.1672 366.654C-42.3375 371.499 -36.1879 375.945 -29.7603 379.962C-26.6831 381.801 -23.2903 383.628 -19.6946 385.602C-11.2858 390.113 -2.58392 394.827 2.64621 400.06C3.64941 401.064 3.44652 405.135 3.34507 407.098C3.34507 407.831 3.27743 408.496 3.27743 409.026C3.27743 423.113 -0.453552 435.474 -18.6576 450.056C-22.0391 452.763 -26.1533 454.32 -30.5043 455.955C-35.2272 457.748 -40.1191 459.598 -44.1094 463.083C-73.991 489.214 -105.766 527.628 -90.6057 563.944H-86.9085C-102.633 529.094 -71.2745 491.335 -41.8212 465.598C-38.3044 462.507 -33.9309 460.85 -29.2531 459.09C-24.8458 457.421 -20.2356 455.707 -16.4934 452.662C-2.56139 441.507 6.71534 429.823 6.71534 408.992C6.71534 408.508 6.71534 407.865 6.78297 407.233C6.95205 403.85 7.15494 399.699 5.09219 397.635C-0.543724 392.053 -9.45974 387.248 -18.094 382.59Z" fill="#2196F3" fillOpacity="0.04"/>
<path d="M-98 473.075V476.876C-97.2483 477.327 -96.5521 477.864 -95.926 478.477C-95.0919 479.323 -94.7988 481.229 -95.2722 483.835C-95.842 486.829 -96.7574 489.747 -98 492.53V500.301C-95.0919 494.876 -92.6797 488.966 -91.9358 484.376C-91.3158 480.553 -91.8569 477.767 -93.5364 476.086C-94.8312 474.822 -96.3433 473.802 -98 473.075Z" fill="#2196F3" fillOpacity="0.04"/>
<path d="M-60.6789 397.117C-62.9333 393.304 -65.2553 389.357 -69.8091 386.628C-76.4821 382.624 -86.39 380.357 -97.9887 380.109V383.492C-87.7764 383.741 -78.0601 385.601 -71.5337 389.515C-67.7238 391.771 -65.7175 395.154 -63.5871 398.831C-62.4012 400.954 -61.0639 402.99 -59.5856 404.921C-51.1092 415.523 -48.0883 424.094 -50.5681 430.41C-55.3248 442.252 -78.4772 445.726 -97.9098 448.308V451.692C-77.474 448.974 -52.9127 445.365 -47.4007 431.639C-44.3348 424.004 -47.4007 414.564 -56.8578 402.767C-58.2649 400.977 -59.5419 399.089 -60.6789 397.117Z" fill="#2196F3" fillOpacity="0.04"/>
<path d="M193.941 161.921C191.596 161.053 189.432 160.071 187.313 159.124C182.195 156.812 177.36 154.613 170.833 154.049C154.095 152.526 133.636 155.707 112.028 159.068C74.5154 164.91 35.7178 170.932 7.69598 154.917C-12.7962 143.199 -22.8507 122.628 -32.5783 102.744C-42.0466 83.4023 -50.9739 65.1316 -68.6481 54.5075C-76.8653 49.5677 -87.2016 47.7406 -97.9549 48.0338V51.4173C-88.6556 51.1805 -78.5448 52.5451 -70.3276 57.4173C-53.4875 67.5677 -44.7631 85.3647 -35.5315 104.244C-25.5785 124.545 -15.2422 145.624 6.10667 157.861C35.1655 174.474 76.3189 168.011 112.637 162.372C134.053 158.989 154.343 155.887 170.619 157.376C176.582 157.917 181.17 159.981 186.016 162.158C188.169 163.128 190.401 164.132 192.836 165.045C216.214 173.82 229.255 182.267 236.458 193.308C244.438 205.545 245.836 221.808 240.967 246.056C238.419 258.767 233.392 268.793 228.072 279.406C224.423 286.354 221.182 293.509 218.367 300.835C216.616 305.967 215.138 311.189 213.937 316.477C211.254 327.372 208.481 338.628 201.2 346.929C179.975 371.211 148.312 385.038 109.638 386.932C76.7022 388.534 39.7531 381.124 8.28213 366.632C-3.31659 361.331 -14.363 354.169 -25.0149 347.199C-39.3865 337.838 -54.1638 328.162 -70.9476 322.59C-78.8379 319.951 -87.9906 319.117 -98 320.064V323.447C-88.3062 322.5 -79.5255 323.278 -71.9846 325.793C-55.6517 331.241 -41.0096 340.793 -26.8973 350.03C-16.1101 357.045 -5.00737 364.32 6.82806 369.778C36.2809 383.258 68.2454 390.368 100.632 390.643C103.713 390.643 106.76 390.568 109.774 390.417C149.383 388.489 181.913 374.256 203.713 349.263C211.536 340.331 214.41 328.658 217.183 317.38C218.354 312.209 219.799 307.104 221.511 302.086C224.281 294.869 227.468 287.819 231.059 280.974C236.244 270.62 241.62 259.929 244.247 246.767C249.285 221.583 247.73 204.541 239.231 191.504C231.611 179.808 218.085 170.966 193.941 161.921Z" fill="#2196F3" fillOpacity="0.04"/>
<path d="M142.89 184.996C128.316 181.353 113.696 183.665 99.5502 185.898C95.3232 186.564 90.961 187.252 86.7003 187.771C83.1271 188.199 79.5314 188.65 75.9244 189.102C46.8994 192.744 16.8938 196.511 -11.545 190.049C-34.4494 184.872 -61.6596 165.417 -67.566 141.88C-69.1216 135.654 -68.9187 128.346 -68.6932 120.451C-68.2311 103.85 -67.7013 85.0263 -87.134 77.7293C-90.6227 76.4909 -94.2982 75.8614 -98 75.8684V79.2519C-94.6959 79.247 -91.4161 79.8156 -88.3062 80.9323C-71.1392 87.3835 -71.5901 103.41 -72.0635 120.406C-72.2777 128.086 -72.4918 136.015 -70.8236 142.703C-67.1264 157.489 -56.4295 168.643 -48.0996 175.41C-37.4928 184.049 -24.4287 190.579 -12.289 193.342C16.7247 199.94 47.0347 196.139 76.3415 192.462C79.9485 192 83.5442 191.56 87.0948 191.132C91.4232 190.613 95.8192 189.914 100.08 189.237C113.888 187.06 128.169 184.805 142.068 188.278C156.417 191.865 171.228 201.203 181.688 213.259C193.174 226.477 198.393 241.455 196.341 255.496C193.197 277.568 180.752 296.865 159.347 312.835C121.023 341.402 64.6638 350.955 28.7067 345.632C12.464 343.252 -2.69665 335.583 -17.3726 328.229C-22.8845 325.444 -28.6444 322.59 -34.2803 320.008C-43.1287 316.026 -51.019 308.729 -59.3827 301.038C-70.9476 290.244 -82.9408 279.237 -98 277.252V280.703C-84.0906 282.778 -72.7173 293.267 -61.6371 303.417C-53.4537 310.974 -44.9773 318.789 -35.6329 322.996C-29.997 325.511 -24.3611 328.376 -18.8943 331.15C-3.98163 338.684 11.427 346.477 28.2558 348.97C64.9006 354.395 122.398 344.662 161.421 315.541C183.255 299.244 196.499 278.639 199.745 255.959C201.876 240.959 196.364 225 184.247 211.026C173.347 198.53 157.871 188.786 142.89 184.996Z" fill="#2196F3" fillOpacity="0.04"/>
<path d="M60.0424 223.861C52.8848 220.996 45.389 218.222 38.1638 215.549C23.7358 210.192 8.74428 204.654 -4.44377 198.079C-8.63689 195.981 -14.1376 196.195 -19.4579 196.41C-22.4622 196.642 -25.4818 196.585 -28.4753 196.241C-36.2303 194.944 -45.7325 189.665 -53.1494 185.222C-66.2247 177.327 -82.0954 158.402 -84.9134 141.451C-85.5334 137.763 -85.8602 133.827 -86.2209 129.665C-87.2467 117.327 -88.4189 103.534 -98 95.6955V100.41C-91.4736 107.617 -90.5042 118.929 -89.5687 129.97C-89.208 134.199 -88.8585 138.192 -88.2273 142.015C-85.2403 159.925 -68.5918 179.898 -54.8627 188.132C-47.1978 192.733 -37.335 198.203 -29.0051 199.59C-25.7771 199.976 -22.5193 200.048 -19.2775 199.805C-14.3855 199.613 -9.32449 199.41 -5.90912 201.113C7.39165 207.767 22.4395 213.338 36.9915 218.729C44.2055 221.402 51.6449 224.165 58.7912 227.019C72.6781 232.579 96.5293 252.248 92.6067 270.023C89.9015 282.226 79.4638 290.718 71.1902 295.68C61.0737 301.593 49.954 305.589 38.3892 307.466C8.07923 312.135 -39.7246 286.568 -74.6222 267.914C-81.7686 264.09 -88.5091 260.492 -94.2239 257.628C-95.4977 256.985 -96.7601 256.365 -98 255.756V259.534L-95.7456 260.662C-90.1097 263.504 -83.3466 267.102 -76.2341 270.902C-43.8388 288.226 -0.476082 311.414 30.7356 311.414C33.4635 311.424 36.1881 311.225 38.8852 310.816C58.9039 307.737 90.5891 294.53 95.8643 270.756C100.294 250.85 75.2932 229.962 60.0424 223.861Z" fill="#2196F3" fillOpacity="0.04"/>
<path d="M-14.5208 214.32L-16.7752 213.722L-23.7862 211.85C-43.7374 206.549 -71.0603 199.297 -84.6541 187.669C-89.6588 183.293 -94.4606 175.748 -98 167.944V175.511C-94.765 181.365 -90.8987 186.677 -86.7282 190.173C-72.582 202.297 -44.8308 209.673 -24.564 215.053C-22.0955 215.707 -19.7509 216.327 -17.5755 216.925L-15.3211 217.523C-3.3955 220.703 6.90696 223.455 4.25808 238.026C3.1309 243.925 -0.442268 249.09 -6.23599 252.97C-14.9717 258.823 -28.295 261.361 -38.6425 259.139C-55.0205 255.699 -70.9476 242.639 -86.2886 229.996C-90.2337 226.759 -94.1788 223.556 -98 220.534V224.842C-94.8439 227.357 -91.654 229.974 -88.4302 232.613C-72.7511 245.504 -56.5309 258.835 -39.4203 262.5C-36.5371 263.108 -33.5973 263.407 -30.6508 263.391C-21.3734 263.426 -12.2796 260.804 -4.44377 255.835C2.12771 251.436 6.2532 245.504 7.4931 238.68C10.7281 221.086 -2.68537 217.466 -14.5208 214.32Z" fill="#2196F3" fillOpacity="0.04"/>
</svg>
